<svg width="30" height="30" viewBox="0 0 30 30" fill="none" xmlns="http://www.w3.org/2000/svg">
    <path d="M6.27489 18.2957C5.42496 17.1915 5 16.6394 5 15C5 13.3606 5.42496 12.8085 6.27489 11.7043C7.97196 9.49956 10.8181 7 15 7C19.1819 7 22.028 9.49956 23.7251 11.7043C24.575 12.8085 25 13.3606 25 15C25 16.6394 24.575 17.1915 23.7251 18.2957C22.028 20.5004 19.1819 23 15 23C10.8181 23 7.97196 20.5004 6.27489 18.2957Z" stroke="#000" stroke-width="1.5"/>
    <path d="M18 15C18 16.6569 16.6569 18 15 18C13.3431 18 12 16.6569 12 15C12 13.3431 13.3431 12 15 12C16.6569 12 18 13.3431 18 15Z" stroke="#000" stroke-width="1.5"/>
</svg>
