<svg width="30" height="30" viewBox="0 0 30 30" fill="none" xmlns="http://www.w3.org/2000/svg">
    <path d="M5.68936 9.70456C5.52619 9.32384 5.08528 9.14747 4.70456 9.31064C4.32384 9.47381 4.14747 9.91472 4.31064 10.2954L5.68936 9.70456ZM18.5872 16.3287L18.3125 15.6308L18.5872 16.3287ZM12.0415 16.7377C12.2674 16.3906 12.169 15.926 11.8219 15.7001C11.4747 15.4742 11.0101 15.5725 10.7842 15.9197L12.0415 16.7377ZM9.37136 18.091C9.14545 18.4381 9.24377 18.9027 9.59096 19.1286C9.93815 19.3545 10.4027 19.2562 10.6286 18.909L9.37136 18.091ZM25.6894 10.2954C25.8525 9.91472 25.6762 9.47381 25.2954 9.31064C24.9147 9.14747 24.4738 9.32384 24.3106 9.70456L25.6894 10.2954ZM22 14.1288L21.4867 13.582V13.582L22 14.1288ZM22.9697 16.1592C23.2626 16.4521 23.7374 16.4521 24.0303 16.1592C24.3232 15.8663 24.3232 15.3914 24.0303 15.0985L22.9697 16.1592ZM14.25 19.5C14.25 19.9142 14.5858 20.25 15 20.25C15.4142 20.25 15.75 19.9142 15.75 19.5H14.25ZM19.3714 18.909C19.5973 19.2562 20.0619 19.3545 20.409 19.1286C20.7562 18.9027 20.8545 18.4381 20.6286 18.091L19.3714 18.909ZM8.53033 14.6592C8.82322 14.3663 8.82322 13.8914 8.53033 13.5985C8.23744 13.3056 7.76256 13.3056 7.46967 13.5985L8.53033 14.6592ZM5.96967 15.0985C5.67678 15.3914 5.67678 15.8663 5.96967 16.1592C6.26256 16.4521 6.73744 16.4521 7.03033 16.1592L5.96967 15.0985ZM15 16.25C11.7761 16.25 9.46133 14.6446 7.9246 12.9897C7.15645 12.1624 6.59325 11.3328 6.22259 10.7101C6.03769 10.3995 5.90187 10.1423 5.8134 9.96537C5.76919 9.87696 5.73689 9.80875 5.71627 9.76411C5.70597 9.7418 5.69859 9.7254 5.69411 9.71533C5.69187 9.7103 5.69036 9.70684 5.68957 9.70503C5.68917 9.70413 5.68896 9.70363 5.68892 9.70355C5.68891 9.70351 5.68893 9.70357 5.68901 9.70374C5.68904 9.70382 5.68913 9.70403 5.68915 9.70407C5.68925 9.7043 5.68936 9.70456 5 10C4.31064 10.2954 4.31077 10.2958 4.31092 10.2961C4.31098 10.2962 4.31114 10.2966 4.31127 10.2969C4.31152 10.2975 4.31183 10.2982 4.31218 10.299C4.31287 10.3006 4.31376 10.3027 4.31483 10.3051C4.31698 10.31 4.31988 10.3166 4.32353 10.3248C4.33083 10.3412 4.34115 10.3642 4.35453 10.3931C4.38127 10.451 4.42026 10.5332 4.47176 10.6362C4.57469 10.8421 4.72794 11.1318 4.93366 11.4774C5.34425 12.1672 5.96855 13.0876 6.8254 14.0103C8.53867 15.8554 11.2239 17.75 15 17.75V16.25ZM18.3125 15.6308C17.3421 16.0128 16.2417 16.25 15 16.25V17.75C16.4382 17.75 17.7246 17.4742 18.8619 17.0266L18.3125 15.6308ZM10.7842 15.9197L9.37136 18.091L10.6286 18.909L12.0415 16.7377L10.7842 15.9197ZM25 10C24.3106 9.70456 24.3107 9.70441 24.3108 9.70427C24.3108 9.70423 24.3108 9.7041 24.3109 9.70402C24.3109 9.70388 24.311 9.70376 24.311 9.70368C24.3111 9.70352 24.3111 9.70349 24.3111 9.7036C24.311 9.7038 24.3107 9.70452 24.3101 9.70576C24.309 9.70823 24.307 9.71275 24.3041 9.71924C24.2983 9.73223 24.2889 9.75309 24.2758 9.78125C24.2495 9.83757 24.2086 9.92295 24.1526 10.0327C24.0406 10.2523 23.869 10.5683 23.6354 10.9432C23.1669 11.6952 22.4563 12.672 21.4867 13.582L22.5133 14.6757C23.6023 13.6535 24.3917 12.5659 24.9085 11.7365C25.1676 11.3207 25.36 10.9668 25.4889 10.7142C25.5533 10.5877 25.602 10.4864 25.6353 10.4151C25.6519 10.3794 25.6647 10.3512 25.6737 10.331C25.6782 10.321 25.6818 10.3129 25.6844 10.307C25.6857 10.304 25.6867 10.3015 25.6876 10.2996C25.688 10.2986 25.6883 10.2978 25.6886 10.2971C25.6888 10.2968 25.6889 10.2965 25.689 10.2962C25.6891 10.296 25.6892 10.2959 25.6892 10.2958C25.6893 10.2956 25.6894 10.2954 25 10ZM21.4867 13.582C20.6277 14.3882 19.5739 15.1343 18.3125 15.6308L18.8619 17.0266C20.3355 16.4466 21.5466 15.583 22.5133 14.6757L21.4867 13.582ZM21.4697 14.6592L22.9697 16.1592L24.0303 15.0985L22.5303 13.5985L21.4697 14.6592ZM14.25 17V19.5H15.75V17H14.25ZM17.9586 16.7377L19.3714 18.909L20.6286 18.091L19.2158 15.9197L17.9586 16.7377ZM7.46967 13.5985L5.96967 15.0985L7.03033 16.1592L8.53033 14.6592L7.46967 13.5985Z" fill="#000"/>
</svg>
