<svg width="30" height="30" viewBox="0 0 30 30" fill="none" xmlns="http://www.w3.org/2000/svg">
    <path fill-rule="evenodd" clip-rule="evenodd" d="M14.292 6.30809C13.8982 6.82224 13.4538 7.61551 12.8083 8.77355L12.4806 9.36141C12.4608 9.39684 12.4413 9.43194 12.422 9.4667C12.1213 10.0079 11.8674 10.4647 11.4584 10.7752C11.045 11.089 10.5411 11.2023 9.95535 11.3339C9.91771 11.3424 9.87973 11.3509 9.84141 11.3596L9.20506 11.5035C7.94974 11.7876 7.09575 11.983 6.51082 12.2135C5.94002 12.4385 5.81953 12.6228 5.77361 12.7704C5.72514 12.9263 5.7237 13.1647 6.06494 13.7068C6.41129 14.257 6.99558 14.9432 7.85011 15.9425L8.28393 16.4498C8.30915 16.4793 8.33413 16.5084 8.35886 16.5373C8.76187 17.0074 9.09791 17.3993 9.25205 17.895C9.40526 18.3877 9.35448 18.9054 9.29291 19.5331C9.28913 19.5716 9.28532 19.6105 9.2815 19.6499L9.21591 20.3267C9.08682 21.6589 8.99978 22.5762 9.02922 23.2369C9.05859 23.8965 9.1979 24.0788 9.30865 24.1628C9.40716 24.2376 9.58925 24.3204 10.1825 24.1504C10.7853 23.9777 11.5866 23.6111 12.762 23.0699L13.3578 22.7956C13.3945 22.7787 13.4309 22.7619 13.4669 22.7452C14.0117 22.4934 14.4843 22.2748 15 22.2748C15.5157 22.2748 15.9883 22.4934 16.5331 22.7452C16.5692 22.7619 16.6055 22.7787 16.6422 22.7956L17.238 23.0699C18.4134 23.6111 19.2147 23.9777 19.8176 24.1504C20.4108 24.3204 20.5929 24.2376 20.6914 24.1628C20.8021 24.0788 20.9414 23.8965 20.9708 23.2369C21.0002 22.5762 20.9132 21.6589 20.7841 20.3267L20.7185 19.6499C20.7147 19.6105 20.7109 19.5716 20.7071 19.5331C20.6456 18.9054 20.5948 18.3877 20.748 17.895C20.9021 17.3993 21.2382 17.0074 21.6412 16.5372C21.6659 16.5084 21.6909 16.4793 21.7161 16.4498L22.1499 15.9425C23.0044 14.9432 23.5887 14.257 23.9351 13.7068C24.2763 13.1647 24.2749 12.9263 24.2264 12.7704C24.1805 12.6228 24.06 12.4385 23.4892 12.2135C22.9043 11.983 22.0503 11.7876 20.795 11.5035L20.1586 11.3596C20.1203 11.3509 20.0823 11.3424 20.0447 11.3339C19.459 11.2023 18.955 11.089 18.5416 10.7752C18.1326 10.4647 17.8788 10.0079 17.578 9.4667C17.5587 9.43194 17.5392 9.39684 17.5195 9.36141L17.1918 8.77355C16.5462 7.61551 16.1018 6.82224 15.7081 6.30809C15.3147 5.79443 15.1138 5.75 15 5.75C14.8863 5.75 14.6853 5.79443 14.292 6.30809ZM13.1011 5.3961C13.5777 4.77363 14.1669 4.25 15 4.25C15.8331 4.25 16.4223 4.77363 16.899 5.3961C17.3674 6.00773 17.864 6.89876 18.471 7.98776L18.8296 8.63106C19.2222 9.33523 19.3226 9.48482 19.4486 9.58044C19.5698 9.67247 19.7262 9.7238 20.4896 9.89654L21.1897 10.0549C22.3653 10.3209 23.3338 10.54 24.0392 10.818C24.7714 11.1065 25.4121 11.5318 25.6588 12.325C25.9029 13.1101 25.6285 13.8323 25.2045 14.5059C24.7925 15.1604 24.1344 15.9298 23.3306 16.8698L22.8561 17.4247C22.3391 18.0292 22.2311 18.1772 22.1803 18.3404C22.1286 18.5069 22.1334 18.6992 22.2115 19.5052L22.2831 20.2433C22.4048 21.4994 22.5041 22.5236 22.4693 23.3037C22.434 24.0977 22.2536 24.8601 21.5984 25.3576C20.9308 25.8643 20.1542 25.8072 19.4044 25.5924C18.6774 25.3841 17.7711 24.9667 16.6705 24.46L16.0149 24.1581C15.2975 23.8278 15.1439 23.7748 15 23.7748C14.8561 23.7748 14.7025 23.8278 13.9852 24.1581L13.3295 24.46C12.229 24.9667 11.3227 25.3841 10.5956 25.5924C9.84587 25.8072 9.0692 25.8643 8.40168 25.3576C7.7464 24.8601 7.56607 24.0977 7.5307 23.3037C7.49595 22.5236 7.59523 21.4993 7.71697 20.2433L7.7885 19.5052C7.8666 18.6992 7.87147 18.5069 7.81971 18.3404C7.76894 18.1772 7.66094 18.0292 7.14393 17.4247L6.66945 16.8698C5.8656 15.9299 5.20753 15.1604 4.79553 14.5059C4.37149 13.8323 4.09714 13.1101 4.34127 12.325C4.58794 11.5318 5.22867 11.1065 5.96086 10.818C6.66622 10.54 7.63474 10.3209 8.81038 10.0549L8.87404 10.0405L9.51039 9.89654C10.2738 9.72381 10.4302 9.67247 10.5515 9.58044C10.6774 9.48482 10.7779 9.33523 11.1704 8.63106L11.529 7.98775C12.136 6.89876 12.6327 6.00773 13.1011 5.3961Z" fill="#e4e9ec"/>
</svg>