<svg width="30" height="30" viewBox="0 0 30 30" fill="none" xmlns="http://www.w3.org/2000/svg">
    <path d="M11.002 10C11.0141 7.82497 11.1105 6.64706 11.8789 5.87868C12.7576 5 14.1718 5 17.0002 5H18.0002C20.8286 5 22.2429 5 23.1215 5.87868C24.0002 6.75736 24.0002 8.17157 24.0002 11V19C24.0002 21.8284 24.0002 23.2426 23.1215 24.1213C22.2429 25 20.8286 25 18.0002 25H17.0002C14.1718 25 12.7576 25 11.8789 24.1213C11.1105 23.3529 11.0141 22.175 11.002 20" stroke="#E4E9EC" stroke-width="1.5" stroke-linecap="round"/>
    <path d="M11 22.5C8.64298 22.5 7.46447 22.5 6.73223 21.7678C6 21.0355 6 19.857 6 17.5V12.5C6 10.143 6 8.96447 6.73223 8.23223C7.46447 7.5 8.64298 7.5 11 7.5" stroke="#E4E9EC" stroke-width="1.5"/>
    <path d="M18 15L9 15M9 15L11 17M9 15L11 13" stroke="#E4E9EC" stroke-width="1.5" stroke-linecap="round" stroke-linejoin="round"/>
</svg>