<svg width="30" height="30" viewBox="0 0 30 30" fill="none" xmlns="http://www.w3.org/2000/svg">
    <path fill-rule="evenodd" clip-rule="evenodd" d="M11.25 12C11.25 9.92893 12.9289 8.25 15 8.25C17.0711 8.25 18.75 9.92893 18.75 12C18.75 14.0711 17.0711 15.75 15 15.75C12.9289 15.75 11.25 14.0711 11.25 12ZM15 9.75C13.7574 9.75 12.75 10.7574 12.75 12C12.75 13.2426 13.7574 14.25 15 14.25C16.2426 14.25 17.25 13.2426 17.25 12C17.25 10.7574 16.2426 9.75 15 9.75Z" fill="#E4E9EC"/>
    <path fill-rule="evenodd" clip-rule="evenodd" d="M4.25 15C4.25 9.06294 9.06294 4.25 15 4.25C20.9371 4.25 25.75 9.06294 25.75 15C25.75 20.9371 20.9371 25.75 15 25.75C9.06294 25.75 4.25 20.9371 4.25 15ZM15 5.75C9.89137 5.75 5.75 9.89137 5.75 15C5.75 17.5456 6.77827 19.851 8.4421 21.5235C8.6225 20.5504 8.97694 19.6329 9.68837 18.8951C10.7525 17.7915 12.4542 17.25 15 17.25C17.5457 17.25 19.2474 17.7915 20.3115 18.8951C21.023 19.6329 21.3774 20.5505 21.5578 21.5236C23.2217 19.8511 24.25 17.5456 24.25 15C24.25 9.89137 20.1086 5.75 15 5.75ZM20.1937 22.6554C20.0918 21.4435 19.8286 20.5553 19.2318 19.9363C18.5823 19.2628 17.3789 18.75 15 18.75C12.621 18.75 11.4176 19.2628 10.7681 19.9363C10.1713 20.5553 9.90811 21.4434 9.80622 22.6553C11.2868 23.6618 13.0747 24.25 15 24.25C16.9252 24.25 18.7131 23.6618 20.1937 22.6554Z" fill="#E4E9EC"/>
</svg>