<svg width="30" height="30" viewBox="0 0 30 30" fill="none" xmlns="http://www.w3.org/2000/svg">
    <path d="M15 5L15 13M15 13L18 10M15 13L12 10" stroke="white" stroke-width="1.5" stroke-linecap="round" stroke-linejoin="round"/>
    <path d="M5 16H8.16026C9.06543 16 9.51802 16 9.91584 16.183C10.3137 16.3659 10.6082 16.7096 11.1973 17.3968L11.8027 18.1032C12.3918 18.7904 12.6863 19.1341 13.0842 19.317C13.482 19.5 13.9346 19.5 14.8397 19.5H15.1603C16.0654 19.5 16.518 19.5 16.9158 19.317C17.3137 19.1341 17.6082 18.7904 18.1973 18.1032L18.8027 17.3968C19.3918 16.7096 19.6863 16.3659 20.0842 16.183C20.482 16 20.9346 16 21.8397 16H25" stroke="white" stroke-width="1.5" stroke-linecap="round"/>
    <path d="M25 15.0001C25 19.7141 25 22.0712 23.5355 23.5356C22.0711 25.0001 19.714 25.0001 15 25.0001C10.286 25.0001 7.92893 25.0001 6.46447 23.5356C5 22.0712 5 19.7141 5 15.0001C5 10.286 5 7.92902 6.46447 6.46455C7.28094 5.64808 8.37486 5.28681 10 5.12695M20 5.12695C21.6251 5.28681 22.7191 5.64808 23.5355 6.46455C24.5093 7.43829 24.8356 8.80655 24.9449 11" stroke="white" stroke-width="1.5" stroke-linecap="round"/>
</svg>
