<svg width="30" height="30" viewBox="0 0 30 30" fill="none" xmlns="http://www.w3.org/2000/svg">
    <path d="M5 9.94975C5 9.06722 5 8.62595 5.06935 8.25839C5.37464 6.64031 6.64031 5.37464 8.25839 5.06935C8.62595 5 9.06722 5 9.94975 5C10.3364 5 10.5298 5 10.7156 5.01738C11.5167 5.09229 12.2765 5.40704 12.8959 5.92051C13.0396 6.03961 13.1763 6.17633 13.4497 6.44975L14 7C14.8158 7.81578 15.2237 8.22367 15.7121 8.49543C15.9804 8.64471 16.2651 8.7626 16.5604 8.84678C17.0979 9 17.6747 9 18.8284 9H19.2021C21.8345 9 23.1506 9 24.0062 9.76946C24.0849 9.84024 24.1598 9.91514 24.2305 9.99383C25 10.8494 25 12.1655 25 14.7979V17C25 20.7712 25 22.6569 23.8284 23.8284C22.6569 25 20.7712 25 17 25H13C9.22876 25 7.34315 25 6.17157 23.8284C5 22.6569 5 20.7712 5 17V9.94975Z" stroke="#E4E9EC" stroke-width="1.5"/>
</svg>
