<svg width="30" height="30" viewBox="0 0 30 30" fill="none" xmlns="http://www.w3.org/2000/svg">
    <path d="M24.609 16.5616L24.8382 14.1263C25.0182 12.2137 25.1082 11.2574 24.781 10.8621C24.604 10.6482 24.3633 10.5172 24.106 10.4946C23.6303 10.4528 23.0329 11.1329 21.8381 12.4931C21.2202 13.1965 20.9113 13.5482 20.5666 13.6027C20.3757 13.6328 20.1811 13.6018 20.0047 13.5131C19.6865 13.3529 19.4743 12.9181 19.0499 12.0485L16.8131 7.46485C16.0112 5.82162 15.6102 5 15 5C14.3898 5 13.9888 5.82162 13.1869 7.46486L10.9501 12.0485C10.5257 12.9181 10.3135 13.3529 9.99526 13.5131C9.81892 13.6018 9.62434 13.6328 9.43337 13.6027C9.08872 13.5482 8.77977 13.1965 8.16187 12.4931C6.96708 11.1329 6.36968 10.4528 5.89399 10.4946C5.63666 10.5172 5.39598 10.6482 5.21899 10.8621C4.8918 11.2574 4.9818 12.2137 5.16181 14.1263L5.391 16.5616C5.76865 20.5742 5.95748 22.5805 7.14009 23.7902C8.32271 25 10.0952 25 13.6401 25H16.3599C19.9048 25 21.6773 25 22.8599 23.7902C24.0425 22.5805 24.2313 20.5742 24.609 16.5616Z" stroke="#3da9db" stroke-width="2"/>
</svg>
