<svg width="30" height="30" viewBox="0 0 30 30" fill="none" xmlns="http://www.w3.org/2000/svg">
    <path d="M18.3929 7.05365L17.8912 7.61112L18.3929 7.05365ZM22.3517 10.6165L21.85 11.174L22.3517 10.6165ZM24.654 13.1541L23.9689 13.4592V13.4592L24.654 13.1541ZM6.17157 23.8284L6.7019 23.2981H6.7019L6.17157 23.8284ZM23.8284 23.8284L23.2981 23.2981L23.2981 23.2981L23.8284 23.8284ZM17 24.25H13V25.75H17V24.25ZM5.75 17V13H4.25V17H5.75ZM24.25 16.5629V17H25.75V16.5629H24.25ZM17.8912 7.61112L21.85 11.174L22.8534 10.0591L18.8947 6.49618L17.8912 7.61112ZM25.75 16.5629C25.75 14.8745 25.7651 13.8055 25.3391 12.849L23.9689 13.4592C24.2349 14.0565 24.25 14.742 24.25 16.5629H25.75ZM21.85 11.174C23.2034 12.3921 23.7029 12.862 23.9689 13.4592L25.3391 12.849C24.9131 11.8924 24.1084 11.1885 22.8534 10.0591L21.85 11.174ZM13.0298 5.75C14.6116 5.75 15.2085 5.76158 15.7405 5.96573L16.2779 4.5653C15.4261 4.23842 14.498 4.25 13.0298 4.25V5.75ZM18.8947 6.49618C17.8087 5.51878 17.1297 4.89214 16.2779 4.5653L15.7405 5.96573C16.2727 6.16993 16.7215 6.55836 17.8912 7.61112L18.8947 6.49618ZM13 24.25C11.0932 24.25 9.73851 24.2484 8.71085 24.1102C7.70476 23.975 7.12511 23.7213 6.7019 23.2981L5.64124 24.3588C6.38961 25.1071 7.33855 25.4392 8.51098 25.5969C9.66182 25.7516 11.1356 25.75 13 25.75V24.25ZM4.25 17C4.25 18.8644 4.24841 20.3382 4.40313 21.489C4.56076 22.6614 4.89288 23.6104 5.64124 24.3588L6.7019 23.2981C6.27869 22.8749 6.02502 22.2952 5.88976 21.2892C5.75159 20.2615 5.75 18.9068 5.75 17H4.25ZM17 25.75C18.8644 25.75 20.3382 25.7516 21.489 25.5969C22.6614 25.4392 23.6104 25.1071 24.3588 24.3588L23.2981 23.2981C22.8749 23.7213 22.2952 23.975 21.2892 24.1102C20.2615 24.2484 18.9068 24.25 17 24.25V25.75ZM24.25 17C24.25 18.9068 24.2484 20.2615 24.1102 21.2892C23.975 22.2952 23.7213 22.8749 23.2981 23.2981L24.3588 24.3588C25.1071 23.6104 25.4392 22.6614 25.5969 21.489C25.7516 20.3382 25.75 18.8644 25.75 17H24.25ZM5.75 13C5.75 11.0932 5.75159 9.73851 5.88976 8.71085C6.02502 7.70476 6.27869 7.12511 6.7019 6.7019L5.64124 5.64124C4.89288 6.38961 4.56076 7.33855 4.40313 8.51098C4.24841 9.66182 4.25 11.1356 4.25 13H5.75ZM13.0298 4.25C11.1554 4.25 9.67442 4.24842 8.51887 4.40307C7.34232 4.56054 6.39019 4.8923 5.64124 5.64124L6.7019 6.7019C7.12453 6.27928 7.70596 6.02525 8.71785 5.88982C9.75075 5.75158 11.1131 5.75 13.0298 5.75V4.25Z" fill="#ea60be"/>
    <path d="M9 17.5H17" stroke="#ea60be" stroke-width="2" stroke-linecap="round"/>
    <path d="M9 21H14.5" stroke="#ea60be" stroke-width="2" stroke-linecap="round"/>
    <path d="M16 5.5V8C16 10.357 16 11.5355 16.7322 12.2678C17.4645 13 18.643 13 21 13H25" stroke="#ea60be" stroke-width="1.5"/>
</svg>
