<svg xmlns="http://www.w3.org/2000/svg" width="35" height="20" fill="none" viewBox="0 0 35 20">
  <path fill="#FFFFFF" fill-rule="evenodd" d="M3.424 12.124c-.22.237.03.356.897.426 4.175.336 8.647 1.91 11.097 3.904.598.487 1.252 1.242 1.152 1.331-.03.027-.39-.195-.802-.494-2.282-1.661-5.173-2.769-8.36-3.203-1.617-.22-2.172-.274-3.385-.33-1.462-.065-1.325-.126-1.74.778-.209.453-.245.619-.154.703.066.06.51.133.988.161.478.028 1.248.091 1.711.14 2.87.303 2.693.28 4.165.547.603.11 1.797.39 2.299.538.14.042.462.128.715.193.253.065.475.167.557.193l.291.088c.153.045.204.045.327.078.082.013.133.058.256.09.106 0 .225.048.265.105.075.108-.049.094-.776-.091-2.226-.567-4.355-.925-7.102-1.195-.562-.055-1.39-.139-1.84-.186-.735-.076-1.854-.128-2.16-.1-.19.018-.682 1.203-.548 1.322.062.055.49.128.95.163.84.063 2.033.17 3.853.345.534.052 1.375.12 1.868.152.493.032 4.229.482 4.264.533.077.11-4.015-.314-9.095-.687-2.3-.17-2.053-.208-2.373.368-.329.593-.342.689-.105.772.098.034 2.767.086 5.93.114 3.164.03 5.776.087 5.806.13.03.042-2.656.076-5.966.076-5.76 0-6.027.008-6.193.172a.79.79 0 0 0-.195.432L0 19.953l7.55.024c5.494.017 7.59-.005 7.69-.08.077-.056.14-.243.14-.414 0-.567.993-1.487 1.606-1.487.215 0 .092-.386-.273-.856-.423-.545-1.585-1.503-2.406-1.984-.734-.43-2.245-1.138-3.424-1.606-1.552-.615-4.558-1.288-6.36-1.424-.378-.028-.75-.073-.826-.099-.077-.026-.2.018-.273.097Zm27.233-.032c-3.733.415-7.076 1.431-9.743 2.963-1.429.82-2.98 2.27-2.98 2.786 0 .126.407.337.648.337.226 0 .932.922 1.04 1.358l.102.417 7.638.024L35 20v-.253a.862.862 0 0 0-.16-.456l-.158-.203h-5.896c-3.844-.002-5.842-.033-5.742-.09.091-.053 1.742-.093 4.087-.099 4.088-.01 7.297-.09 7.402-.183.064-.058-.316-.956-.491-1.161-.075-.087-.224-.104-.519-.06-.227.034-.988.1-1.69.147-.703.046-1.83.125-2.505.175-2.412.178-7.422.64-7.357.545.035-.05 4.639-.548 5.132-.58.493-.032 1.334-.1 1.868-.152 2.17-.209 3.056-.288 3.882-.346.715-.05.874-.09.902-.222.042-.197-.399-1.236-.542-1.278-.185-.053-3.117.185-4.83.393-1.724.209-2.15.265-2.682.357-.31.053-.815.137-1.124.185-.31.048-.907.175-1.329.281-1.981.5-1.99.501-1.9.372.06-.059.163-.059.265-.104.102-.046.153-.046.256-.091.102-.046.153-.046.292-.091.146-.033.219-.046.326-.075.125-.035.304-.13.557-.195.253-.066.658-.176.9-.245 1.962-.553 4.14-.879 7.48-1.119a83.424 83.424 0 0 1 1.353-.09c.252-.008.225-.242-.111-.97l-.29-.629-1.32.027c-1.232.024-1.718.067-3.414.298-1.18.16-1.767.28-2.873.588-1.988.551-4.682 1.866-5.836 2.847-.443.377-.604.335-.31-.078 1.041-1.465 4.5-3.313 7.742-4.138 1.509-.384 3.183-.685 4.272-.768.966-.074 1.213-.176.994-.41-.072-.078-.16-.135-.195-.128-.035.006-.386.048-.78.091Zm-14.17 6.27c-.465.219-.77.556-.904 1.002-.143.474-.047.651.336.617.17-.015.342-.09.384-.164.04-.075.136-.253.21-.395.152-.288.568-.515.941-.515.38 0 .903.37 1.03.728.102.284.153.318.472.318.352 0 .358-.006.35-.373-.01-.452-.316-.868-.87-1.18-.505-.283-1.39-.3-1.949-.038Z" clip-rule="evenodd"/>
  <path fill="#FFFFFF" fill-rule="evenodd" d="M17.187.1c-.154.098-1.22.614-2.245 1.087-.287.132-.803.378-1.148.545-.345.167-.861.412-1.148.545-.288.132-.804.379-1.149.548-.344.168-.861.405-1.148.524-.895.373-2.148 1.062-2.073 1.14.105.11 18.41.093 18.41-.017 0-.05-.293-.242-.652-.425a105.52 105.52 0 0 0-2.792-1.363 87.913 87.913 0 0 1-2.036-.952 76.928 76.928 0 0 0-1.148-.545c-.93-.43-2.084-.984-2.27-1.093-.219-.127-.393-.126-.601.007ZM8 5.819v.49h19v-.98H8v.49Zm.177 1.214c-.136.142-.072.314.155.422.319.15.353.356.067.398-.259.039-.408.417-.165.417.447 0 .81 1.019.81 2.276.001.337.032.945.068 1.353.067.734.071.742.49.953.231.117.523.212.649.212.26 0 .288-.162.463-2.723.076-1.099.141-1.502.26-1.592.087-.067.158-.178.158-.248s.121-.175.27-.234c.312-.124.287-.362-.043-.413-.312-.048-.286-.328.042-.459.149-.059.25-.168.227-.242-.032-.099-.495-.144-1.712-.165-.917-.017-1.7.004-1.74.045Zm5.115 0c-.138.144-.07.34.137.397.114.032.208.13.208.218 0 .089-.094.187-.208.218-.215.059-.298.404-.097.404.062 0 .242.136.4.3.255.266.298.417.371 1.281.046.539.112 1.96.148 3.158l.065 2.177.6.43c.329.236.617.408.64.383.023-.026.096-1.396.163-3.043.157-3.89.18-4.094.476-4.403.132-.138.32-.283.416-.321.234-.094.147-.334-.137-.378-.332-.05-.26-.344.121-.49.105-.041.172-.136.148-.21-.031-.1-.49-.145-1.711-.166-.917-.017-1.7.004-1.74.045Zm5.115 0c-.136.142-.072.314.156.422.318.15.353.356.066.398-.258.039-.407.417-.164.417.295 0 .577.516.695 1.268.064.411.137 1.483.162 2.382.076 2.668.176 3.978.306 3.975.064-.002.333-.169.598-.372l.482-.369.066-1.944c.113-3.294.208-4.2.481-4.585.131-.185.331-.362.445-.393.263-.072.187-.332-.11-.378-.312-.048-.286-.328.042-.459.148-.059.25-.168.226-.242-.031-.099-.495-.144-1.71-.165-.918-.017-1.701.004-1.74.045Zm5.116 0c-.139.144-.071.34.136.397.115.032.21.13.21.218 0 .089-.095.187-.21.218-.218.06-.295.404-.09.404.065 0 .24.135.39.3.29.32.306.429.492 3.323.047.732.119 1.17.19 1.17.185-.003 1.04-.332 1.184-.456.085-.074.131-.42.131-.992 0-.483.054-1.316.12-1.85.122-.995.299-1.356.75-1.53.248-.095.171-.336-.121-.38-.312-.049-.285-.33.043-.46.148-.059.25-.168.226-.242-.032-.099-.495-.144-1.711-.165-.918-.017-1.7.004-1.74.045Z" clip-rule="evenodd"/>
</svg>
