<svg xmlns="http://www.w3.org/2000/svg" width="100" height="85" fill="none" viewBox="0 0 100 85">
  <g clip-path="url(#a)">
    <path fill="#2A303C" fill-rule="evenodd" d="M9.783 51.527c-.629 1.007.086 1.513 2.563 1.81C24.274 54.765 37.05 61.456 44.05 69.93c1.709 2.07 3.578 5.278 3.292 5.656-.086.115-1.114-.829-2.292-2.1-6.52-7.059-14.78-11.768-23.885-13.612-4.62-.935-6.206-1.165-9.672-1.403-4.177-.276-3.785-.535-4.971 3.307-.597 1.925-.7 2.63-.44 2.988.188.255 1.457.565 2.823.684 1.365.119 3.565.387 4.888.595 8.2 1.288 7.695 1.19 11.9 2.325 1.723.467 5.135 1.657 6.569 2.286.4.179 1.32.544 2.043.82.723.277 1.357.71 1.591.82l.832.375c.437.191.582.191.934.331.234.056.38.247.731.383.303 0 .643.204.757.446.215.459-.14.4-2.217-.387-6.36-2.41-12.443-3.931-20.291-5.079-1.606-.233-3.972-.59-5.257-.79-2.1-.323-5.297-.544-6.172-.425-.543.076-1.948 5.113-1.565 5.618.177.234 1.4.544 2.714.693 2.4.268 5.808.723 11.008 1.466 1.526.221 3.929.51 5.338.646 1.408.137 12.082 2.049 12.182 2.266.22.467-11.471-1.335-25.985-2.92-6.572-.722-5.866-.884-6.78 1.564-.94 2.52-.977 2.928-.3 3.281.28.145 7.905.365 16.943.485 9.04.127 16.502.37 16.588.552.086.178-7.588.323-17.046.323-16.457 0-17.22.034-17.694.731-.308.513-.502 1.154-.557 1.836L0 84.801l21.571.101c15.698.073 21.686-.021 21.972-.34.22-.238.4-1.032.4-1.76 0-2.409 2.837-6.319 4.588-6.319.615 0 .263-1.64-.78-3.638-1.208-2.316-4.528-6.388-6.874-8.432-2.097-1.827-6.414-4.836-9.783-6.825-4.434-2.614-13.023-5.474-18.171-6.053-1.08-.118-2.143-.31-2.36-.42-.22-.11-.572.076-.78.412Zm77.808-.136c-10.665 1.764-20.217 6.082-27.837 12.593-4.083 3.485-8.514 9.647-8.514 11.84 0 .536 1.163 1.433 1.851 1.433.646 0 2.663 3.918 2.972 5.771l.291 1.772 21.823.102L100 85v-1.075a4.915 4.915 0 0 0-.457-1.938l-.452-.863H82.246c-10.983-.008-16.692-.14-16.406-.382.26-.226 4.977-.396 11.677-.421 11.68-.043 20.849-.383 21.149-.778.183-.247-.903-4.063-1.403-4.934-.214-.37-.64-.442-1.483-.255-.649.144-2.823.425-4.829.624-2.008.196-5.228.532-7.157.744-6.891.757-21.205 2.72-21.02 2.317.1-.213 13.255-2.33 14.663-2.466a136.99 136.99 0 0 0 5.337-.645c6.2-.889 8.732-1.224 11.092-1.471 2.043-.212 2.497-.382 2.577-.944.12-.837-1.14-5.253-1.549-5.431-.528-.225-8.905.786-13.8 1.67-4.925.889-6.143 1.127-7.663 1.517-.885.226-2.328.583-3.211.787-.886.204-2.591.743-3.797 1.194-5.66 2.125-5.686 2.13-5.429 1.581.172-.25.466-.25.757-.442.292-.195.438-.195.732-.387.291-.195.437-.195.834-.386.417-.14.626-.196.932-.32.357-.148.868-.552 1.591-.828.723-.28 1.88-.748 2.571-1.041 5.606-2.35 11.829-3.736 21.372-4.756 1.288-.143 2.576-.27 3.866-.383.72-.034.642-1.028-.318-4.122l-.828-2.673-3.772.114c-3.52.102-4.908.285-9.754 1.267-3.371.68-5.048 1.19-8.208 2.499-5.68 2.342-13.378 7.93-16.675 12.1-1.265 1.602-1.725 1.424-.885-.332 2.974-6.226 12.857-14.08 22.12-17.586 4.311-1.632 9.094-2.911 12.205-3.264 2.76-.315 3.466-.748 2.84-1.743-.205-.331-.457-.574-.557-.544-.1.026-1.1.204-2.226.387ZM47.106 78.039c-1.329.93-2.2 2.362-2.583 4.258-.409 2.014-.134 2.767.96 2.622.486-.063.977-.382 1.097-.697.114-.319.389-1.075.6-1.678.434-1.224 1.623-2.19 2.689-2.19 1.085 0 2.58 1.573 2.942 3.095.292 1.207.438 1.351 1.349 1.351 1.006 0 1.023-.025 1-1.585-.029-1.921-.903-3.689-2.486-5.015-1.443-1.203-3.971-1.275-5.568-.162Z" clip-rule="evenodd"/>
    <path fill="#2A303C" fill-rule="evenodd" d="M49.106.425c-.44.417-3.486 2.61-6.415 4.62-.82.56-2.294 1.606-3.28 2.316-.985.71-2.46 1.751-3.28 2.316a158.58 158.58 0 0 0-3.282 2.33c-.983.713-2.46 1.72-3.28 2.226-2.558 1.586-6.138 4.514-5.923 4.845.3.468 52.6.396 52.6-.072 0-.212-.837-1.028-1.863-1.806a277.79 277.79 0 0 0-7.977-5.793 226.74 226.74 0 0 1-5.817-4.046 200.156 200.156 0 0 0-3.28-2.316C54.65 3.217 51.354.863 50.823.4c-.626-.54-1.123-.536-1.717.03V.424ZM22.857 24.731v2.082h54.286v-4.165H22.857v2.083Zm.506 5.16c-.389.603-.206 1.334.443 1.793.911.637 1.008 1.513.191 1.691-.74.166-1.166 1.773-.471 1.773 1.277 0 2.314 4.33 2.314 9.673.003 1.432.091 4.016.194 5.75.192 3.12.203 3.153 1.4 4.05.66.497 1.495.901 1.855.901.742 0 .822-.688 1.322-11.573.218-4.67.403-6.383.743-6.766.249-.284.452-.756.452-1.054 0-.297.345-.743.771-.994.892-.527.82-1.539-.123-1.755-.891-.204-.817-1.394.12-1.951.426-.25.715-.714.649-1.029-.092-.42-1.414-.612-4.892-.7-2.62-.073-4.857.016-4.971.19h.003Zm14.614 0c-.394.611-.2 1.444.392 1.687.325.136.594.552.594.926 0 .378-.269.795-.594.927-.615.25-.852 1.717-.278 1.717.178 0 .692.578 1.143 1.275.729 1.13.852 1.772 1.06 5.444.132 2.29.32 8.33.423 13.421l.186 9.253 1.714 1.827c.94 1.003 1.763 1.734 1.829 1.628.065-.11.274-5.933.465-12.933.449-16.532.515-17.4 1.36-18.713.378-.586.915-1.202 1.189-1.364.669-.4.42-1.42-.391-1.606-.949-.213-.743-1.462.345-2.083.3-.174.492-.578.423-.892-.088-.425-1.4-.617-4.888-.706-2.62-.072-4.858.017-4.972.191Zm14.614 0c-.388.603-.205 1.334.446 1.793.909.637 1.009 1.513.189 1.691-.737.166-1.163 1.773-.469 1.773.843 0 1.649 2.193 1.986 5.389.183 1.746.391 6.302.463 10.123.217 11.34.503 16.907.874 16.894.183-.009.951-.718 1.709-1.581l1.377-1.568.188-8.262c.323-14 .595-17.85 1.375-19.487.374-.786.945-1.538 1.271-1.67.751-.306.534-1.41-.314-1.606-.892-.204-.817-1.394.12-1.951.423-.25.714-.714.645-1.029-.088-.42-1.414-.612-4.885-.7-2.623-.073-4.86.016-4.972.19h-.003Zm14.618 0c-.398.611-.203 1.444.388 1.687.329.136.6.552.6.926 0 .378-.271.795-.6.927-.623.255-.843 1.717-.257 1.717.186 0 .686.573 1.114 1.275.829 1.36.875 1.823 1.406 14.122.134 3.111.34 4.973.543 4.973.528-.013 2.971-1.411 3.383-1.938.243-.315.374-1.785.374-4.216 0-2.053.154-5.593.343-7.863.348-4.228.854-5.763 2.143-6.502.708-.404.488-1.428-.346-1.615-.891-.208-.814-1.403.123-1.955.423-.25.714-.714.646-1.029-.092-.42-1.415-.612-4.889-.7-2.623-.073-4.857.016-4.971.19Z" clip-rule="evenodd"/>
  </g>
  <defs>
    <clipPath id="a">
      <path fill="#fff" d="M0 0h100v85H0z"/>
    </clipPath>
  </defs>
</svg>
