<svg xmlns="http://www.w3.org/2000/svg" width="100" height="65" fill="none" viewBox="0 0 100 65">
  <g clip-path="url(#a)">
    <path fill="#2A303C" fill-rule="evenodd" d="M9.783 39.403c-.629.77.086 1.157 2.563 1.385C24.274 41.88 37.05 46.995 44.05 53.476c1.709 1.582 3.578 4.036 3.292 4.325-.086.088-1.114-.634-2.292-1.605-6.52-5.398-14.78-9-23.885-10.41-4.62-.715-6.206-.89-9.672-1.072-4.177-.212-3.785-.41-4.971 2.528-.597 1.472-.7 2.012-.44 2.285.188.195 1.457.432 2.823.523 1.365.091 3.565.296 4.888.455 8.2.985 7.695.91 11.9 1.778 1.723.357 5.135 1.267 6.569 1.748.4.137 1.32.416 2.043.627.723.212 1.357.543 1.591.628l.832.286c.437.146.582.146.934.253.234.042.38.189.731.293.303 0 .643.156.757.341.215.351-.14.305-2.217-.296-6.36-1.842-12.443-3.006-20.291-3.883a875.766 875.766 0 0 1-5.257-.605c-2.1-.247-5.297-.416-6.172-.325-.543.058-1.948 3.91-1.565 4.297.177.178 1.4.416 2.714.53 2.4.204 5.808.552 11.008 1.12 1.526.17 3.929.39 5.338.495 1.408.103 12.082 1.566 12.182 1.732.22.357-11.471-1.02-25.985-2.233-6.572-.552-5.866-.676-6.78 1.196-.94 1.927-.977 2.24-.3 2.509.28.11 7.905.28 16.943.37 9.04.098 16.502.283 16.588.423.086.136-7.588.247-17.046.247-16.457 0-17.22.026-17.694.559a2.743 2.743 0 0 0-.557 1.404l-.06.848 21.571.078c15.698.056 21.686-.016 21.972-.26.22-.182.4-.79.4-1.345 0-1.843 2.837-4.833 4.588-4.833.615 0 .263-1.255-.78-2.782-1.208-1.771-4.528-4.885-6.874-6.448-2.097-1.398-6.414-3.698-9.783-5.22-4.434-1.998-13.023-4.185-18.171-4.627-1.08-.091-2.143-.238-2.36-.322-.22-.085-.572.058-.78.315Zm77.808-.104c-10.665 1.349-20.217 4.65-27.837 9.63-4.083 2.665-8.514 7.377-8.514 9.054 0 .41 1.163 1.096 1.851 1.096.646 0 2.663 2.996 2.972 4.413l.291 1.355 21.823.078L100 65v-.822a3.057 3.057 0 0 0-.457-1.482l-.452-.66H82.246c-10.983-.007-16.692-.107-16.406-.293.26-.172 4.977-.302 11.677-.321 11.68-.033 20.849-.293 21.149-.595.183-.188-.903-3.107-1.403-3.773-.214-.283-.64-.338-1.483-.195-.649.11-2.823.325-4.829.477-2.008.15-5.228.407-7.157.57-6.891.578-21.205 2.08-21.02 1.77.1-.162 13.255-1.78 14.663-1.885 1.409-.103 3.812-.324 5.337-.493 6.2-.68 8.732-.937 11.092-1.125 2.043-.163 2.497-.293 2.577-.721.12-.64-1.14-4.017-1.549-4.154-.528-.172-8.905.601-13.8 1.277-4.925.68-6.143.861-7.663 1.16-.885.173-2.328.446-3.211.602-.886.156-2.591.569-3.797.913-5.66 1.625-5.686 1.628-5.429 1.209.172-.192.466-.192.757-.338.292-.15.438-.15.732-.296.291-.15.437-.15.834-.296.417-.107.626-.149.932-.243.357-.114.868-.423 1.591-.634.723-.215 1.88-.572 2.571-.796 5.606-1.797 11.829-2.857 21.372-3.637 1.288-.11 2.576-.207 3.866-.293.72-.026.642-.786-.318-3.152l-.828-2.044-3.772.088c-3.52.078-4.908.217-9.754.968-3.371.52-5.048.91-8.208 1.911-5.68 1.79-13.378 6.064-16.675 9.253-1.265 1.225-1.725 1.088-.885-.254 2.974-4.761 12.857-10.767 22.12-13.448 4.311-1.248 9.094-2.226 12.205-2.496 2.76-.24 3.466-.572 2.84-1.333-.205-.253-.457-.438-.557-.416-.1.02-1.1.156-2.226.296ZM47.106 59.676c-1.329.712-2.2 1.807-2.583 3.257-.409 1.54-.134 2.116.96 2.005.486-.049.977-.292 1.097-.533.114-.243.389-.822.6-1.284.434-.936 1.623-1.673 2.689-1.673 1.085 0 2.58 1.202 2.942 2.366.292.923.438 1.033 1.349 1.033 1.006 0 1.023-.02 1-1.212-.029-1.469-.903-2.821-2.486-3.835-1.443-.92-3.971-.975-5.568-.123Z" clip-rule="evenodd"/>
    <path fill="#2A303C" fill-rule="evenodd" d="M49.106.325c-.44.319-3.486 1.996-6.415 3.533a215.64 215.64 0 0 0-3.28 1.771c-.985.543-2.46 1.34-3.28 1.771a165.65 165.65 0 0 0-3.282 1.781 68.53 68.53 0 0 1-3.28 1.703c-2.558 1.213-6.138 3.452-5.923 3.705.3.358 52.6.303 52.6-.055 0-.162-.837-.786-1.863-1.381a287.84 287.84 0 0 0-7.977-4.43 238.517 238.517 0 0 1-5.817-3.094c-1.09-.6-2.183-1.191-3.28-1.771C54.65 2.46 51.354.66 50.823.306c-.626-.413-1.123-.41-1.717.022V.325ZM22.857 18.912v1.592h54.286V17.32H22.857v1.593Zm.506 3.945c-.389.462-.206 1.02.443 1.372.911.487 1.008 1.157.191 1.293-.74.127-1.166 1.356-.471 1.356 1.277 0 2.314 3.311 2.314 7.397.003 1.095.091 3.07.194 4.397.192 2.385.203 2.411 1.4 3.097.66.38 1.495.69 1.855.69.742 0 .822-.527 1.322-8.85.218-3.572.403-4.882.743-5.175.249-.217.452-.578.452-.806 0-.227.345-.568.771-.76.892-.403.82-1.177-.123-1.342-.891-.156-.817-1.066.12-1.492.426-.192.715-.546.649-.787-.092-.321-1.414-.468-4.892-.536-2.62-.055-4.857.013-4.971.146h.003Zm14.614 0c-.394.468-.2 1.105.392 1.29.325.105.594.423.594.71 0 .288-.269.607-.594.708-.615.191-.852 1.313-.278 1.313.178 0 .692.442 1.143.975.729.864.852 1.355 1.06 4.163.132 1.752.32 6.37.423 10.263l.186 7.076 1.714 1.397c.94.767 1.763 1.326 1.829 1.245.065-.085.274-4.537.465-9.89.449-12.642.515-13.305 1.36-14.31.378-.448.915-.92 1.189-1.043.669-.305.42-1.085-.391-1.228-.949-.163-.743-1.118.345-1.593.3-.133.492-.442.423-.682-.088-.325-1.4-.472-4.888-.54-2.62-.055-4.858.013-4.972.146Zm14.614 0c-.388.462-.205 1.02.446 1.372.909.487 1.009 1.157.189 1.293-.737.127-1.163 1.356-.469 1.356.843 0 1.649 1.677 1.986 4.12.183 1.336.391 4.82.463 7.742.217 8.671.503 12.929.874 12.919.183-.007.951-.55 1.709-1.21l1.377-1.198.188-6.318c.323-10.706.595-13.65 1.375-14.902.374-.6.945-1.176 1.271-1.277.751-.234.534-1.079-.314-1.228-.892-.156-.817-1.066.12-1.492.423-.192.714-.546.645-.787-.088-.321-1.414-.468-4.885-.536-2.623-.055-4.86.013-4.972.146h-.003Zm14.618 0c-.398.468-.203 1.105.388 1.29.329.105.6.423.6.71 0 .288-.271.607-.6.708-.623.195-.843 1.313-.257 1.313.186 0 .686.438 1.114.975.829 1.04.875 1.394 1.406 10.8.134 2.378.34 3.802.543 3.802.528-.01 2.971-1.08 3.383-1.482.243-.24.374-1.365.374-3.224 0-1.57.154-4.277.343-6.013.348-3.233.854-4.407 2.143-4.972.708-.309.488-1.092-.346-1.235-.891-.16-.814-1.073.123-1.495.423-.192.714-.546.646-.787-.092-.321-1.415-.468-4.889-.536-2.623-.055-4.857.013-4.971.146Z" clip-rule="evenodd"/>
  </g>
  <defs>
    <clipPath id="a">
      <path fill="#fff" d="M0 0h100v65H0z"/>
    </clipPath>
  </defs>
</svg>
