<svg width="30" height="30" viewBox="0 0 30 30" fill="none" xmlns="http://www.w3.org/2000/svg">
    <path d="M5 15.2039C5 12.9155 5 11.7713 5.5192 10.8227C6.0384 9.87421 6.98695 9.28551 8.88403 8.10813L10.884 6.86687C12.8894 5.62229 13.8921 5 15 5C16.1079 5 17.1106 5.62229 19.116 6.86687L21.116 8.10812C23.0131 9.28551 23.9616 9.87421 24.4808 10.8227C25 11.7713 25 12.9155 25 15.2039V16.725C25 20.6258 25 22.5763 23.8284 23.7881C22.6569 25 20.7712 25 17 25H13C9.22876 25 7.34315 25 6.17157 23.7881C5 22.5763 5 20.6258 5 16.725V15.2039Z" stroke="#000" stroke-width="1.5"/>
    <path d="M18 21H12" stroke="#000" stroke-width="1.5" stroke-linecap="round"/>
</svg>
