<svg width="30" height="30" viewBox="0 0 30 30" fill="none" xmlns="http://www.w3.org/2000/svg">
    <path d="M21.8181 11.2724C22.2199 11.172 22.6271 11.4163 22.7276 11.8181C22.8281 12.22 22.5837 12.6272 22.1819 12.7276L18.1819 13.7276C17.7801 13.8281 17.3729 13.5838 17.2724 13.1819C17.1719 12.7801 17.4163 12.3729 17.8181 12.2724L21.8181 11.2724Z" fill="#FFF"/>
    <path d="M21.8181 15.2724C22.2199 15.172 22.6271 15.4163 22.7276 15.8181C22.8281 16.22 22.5837 16.6272 22.1819 16.7276L18.1819 17.7276C17.7801 17.8281 17.3729 17.5838 17.2724 17.1819C17.1719 16.7801 17.4163 16.3729 17.8181 16.2724L21.8181 15.2724Z" fill="#FFF"/>
    <path d="M7.27239 11.8181C7.37285 11.4163 7.78006 11.172 8.1819 11.2724L12.1819 12.2724C12.5837 12.3729 12.8281 12.7801 12.7276 13.1819C12.6271 13.5838 12.2199 13.8281 11.8181 13.7276L7.8181 12.7276C7.41625 12.6272 7.17193 12.22 7.27239 11.8181Z" fill="#FFF"/>
    <path d="M7.27239 15.8181C7.37285 15.4163 7.78006 15.172 8.1819 15.2724L12.1819 16.2724C12.5837 16.3729 12.8281 16.7801 12.7276 17.1819C12.6271 17.5838 12.2199 17.8281 11.8181 17.7276L7.8181 16.7276C7.41625 16.6272 7.17193 16.22 7.27239 15.8181Z" fill="#FFF"/>
    <path fill-rule="evenodd" clip-rule="evenodd" d="M25.75 7.93323C25.75 6.46992 24.5847 5.21498 23.0559 5.26824C21.9175 5.30789 20.4296 5.4263 19.2849 5.76899C18.2899 6.06687 17.1706 6.64872 16.2982 7.15366C15.4801 7.62712 14.4617 7.65074 13.6328 7.21248C12.6374 6.68609 11.3277 6.06215 10.1914 5.7623C9.23055 5.50876 8.01517 5.38698 7.02841 5.32634C5.47017 5.23057 4.25 6.49868 4.25 7.99784V19.1436C4.25 20.6798 5.49378 21.8792 6.96804 21.9714C7.9268 22.0314 9.00566 22.1467 9.80864 22.3586C10.8012 22.6205 12.0286 23.2029 13.0196 23.7311C14.2529 24.3885 15.7471 24.3885 16.9804 23.7311C17.9714 23.2029 19.1988 22.6205 20.1914 22.3586C20.9943 22.1467 22.0732 22.0314 23.032 21.9714C24.5062 21.8792 25.75 20.6798 25.75 19.1436V7.93323ZM23.1081 6.76733C23.7229 6.74591 24.25 7.25164 24.25 7.93323V19.1436C24.25 19.8294 23.6817 20.4278 22.9383 20.4743C21.9582 20.5356 20.7591 20.6574 19.8086 20.9082C18.6383 21.2171 17.2827 21.8701 16.2748 22.4074C16.1065 22.4971 15.9305 22.5678 15.75 22.6194V8.94207C16.2023 8.85153 16.6421 8.68771 17.0495 8.45191C17.9 7.95972 18.8949 7.45152 19.7151 7.20597C20.6643 6.92182 21.9892 6.8063 23.1081 6.76733ZM14.25 8.97501C13.795 8.90426 13.349 8.75918 12.9317 8.53851C11.9549 8.022 10.7708 7.46654 9.80864 7.21266C8.99643 6.99833 7.90238 6.88288 6.93639 6.82351C6.30243 6.78455 5.75 7.30065 5.75 7.99784V19.1436C5.75 19.8294 6.31831 20.4278 7.06168 20.4743C8.04176 20.5356 9.24092 20.6574 10.1914 20.9082C11.3617 21.2171 12.7173 21.8701 13.7252 22.4074C13.8935 22.4971 14.0695 22.5678 14.25 22.6194V8.97501Z" fill="#FFF"/>
</svg>
