<svg width="30" height="30" viewBox="0 0 30 30" fill="none" xmlns="http://www.w3.org/2000/svg">
    <path d="M7 25H23" stroke="#FFFFFF" stroke-width="1.5" stroke-linecap="round"/>
    <path d="M16.8881 6.66293L17.6296 5.92142C18.8581 4.69286 20.85 4.69286 22.0786 5.92142C23.3071 7.14999 23.3071 9.14188 22.0786 10.3704L21.3371 11.1119M16.8881 6.66293C16.8881 6.66293 16.9807 8.23862 18.3711 9.62894C19.7614 11.0193 21.3371 11.1119 21.3371 11.1119M16.8881 6.66293L10.0711 13.4799C9.60933 13.9416 9.37846 14.1725 9.17992 14.4271C8.94571 14.7273 8.74491 15.0522 8.58107 15.396C8.44219 15.6874 8.33894 15.9972 8.13245 16.6167L7.25745 19.2417M21.3371 11.1119L14.5201 17.9289C14.0584 18.3907 13.8275 18.6215 13.5729 18.8201C13.2727 19.0543 12.9478 19.2551 12.604 19.4189C12.3126 19.5578 12.0028 19.6611 11.3833 19.8675L8.75834 20.7426M8.75834 20.7426L8.11667 20.9564C7.81182 21.0581 7.47573 20.9787 7.2485 20.7515C7.02128 20.5243 6.94194 20.1882 7.04356 19.8833L7.25745 19.2417M8.75834 20.7426L7.25745 19.2417" stroke="#FFFFFF" stroke-width="1.5"/>
</svg>
